{"glyphs":{":":{"x_min":0,"x_max":600,"ha":600,"o":"m 366 310 q 334 310 319 324 q 304 339 304 363 q 304 394 329 418 q 354 443 394 443 q 426 443 441 428 q 457 414 457 391 q 457 358 431 334 q 405 310 366 310 z m 297 -18 q 266 -18 250 -3 q 235 11 235 35 q 235 66 260 91 q 286 115 326 115 q 357 115 373 101 q 388 86 388 63 q 388 31 363 7 q 337 -18 297 -18 z"},"$":{"x_min":0,"x_max":600,"ha":600,"o":"m 478 601 q 511 597 542 582 q 559 590 572 590 q 590 590 601 579 q 612 568 612 554 q 612 543 608 523 l 601 491 q 593 455 576 440 q 559 424 537 424 q 520 424 508 435 q 497 446 497 461 q 497 466 498 476 q 469 504 416 504 q 356 504 326 480 q 295 457 295 432 q 295 416 307 405 q 321 392 364 382 l 428 368 q 506 352 536 320 q 565 288 565 239 q 565 166 510 105 q 454 45 355 27 l 337 -58 q 330 -94 312 -110 q 295 -125 272 -125 q 256 -125 244 -114 q 233 -103 233 -88 q 233 -79 237 -58 l 255 27 q 218 35 183 53 q 158 35 140 35 q 121 35 110 46 q 98 57 98 72 q 98 82 103 102 l 116 165 q 124 201 141 216 q 158 231 180 231 q 198 231 208 222 q 219 212 220 192 q 221 171 228 162 q 239 146 267 135 q 294 125 327 125 q 390 125 433 158 q 463 182 463 216 q 463 235 451 245 q 435 261 389 270 l 317 285 q 251 299 222 331 q 193 363 193 409 q 193 475 244 531 q 296 587 377 601 l 383 628 q 391 664 408 679 q 425 695 448 695 q 465 695 476 684 q 488 673 488 658 q 488 648 483 628 z"},"?":{"x_min":0,"x_max":600,"ha":600,"o":"m 400 231 q 391 202 375 189 q 359 177 338 177 q 321 177 310 188 q 299 199 299 213 q 299 224 303 244 l 315 300 q 437 343 473 370 q 510 396 510 435 q 510 466 487 487 q 464 507 418 507 q 390 507 362 500 q 333 494 305 481 l 302 467 q 294 431 277 416 q 260 400 237 400 q 220 400 209 411 q 198 422 198 438 q 198 446 202 467 l 219 547 q 304 584 349 595 q 394 607 440 607 q 522 607 567 565 q 611 523 611 457 q 611 388 570 335 q 528 282 400 231 z m 299 -14 q 263 -14 250 -3 q 238 8 238 27 q 238 57 265 76 q 283 89 320 89 q 356 89 369 78 q 381 67 381 49 q 381 19 354 -1 q 336 -14 299 -14 z"},"<":{"x_min":0,"x_max":600,"ha":600,"o":"m 256 285 l 542 105 q 561 93 567 85 q 572 77 572 64 q 572 41 553 21 q 534 2 509 2 q 497 2 474 17 l 48 285 l 588 554 q 617 568 630 568 q 648 568 659 556 q 671 545 671 527 q 671 508 658 491 q 648 480 618 465 z"},"'":{"x_min":0,"x_max":600,"ha":600,"o":"m 365 611 l 494 611 l 407 354 q 400 333 391 325 q 381 318 368 318 q 357 318 350 324 q 344 331 344 342 q 344 344 344 353 z"},"=":{"x_min":0,"x_max":600,"ha":600,"o":"m 585 329 l 157 329 q 124 329 112 340 q 100 350 100 369 q 100 398 127 418 q 143 429 178 429 l 606 429 q 640 429 652 419 q 664 408 664 390 q 664 360 635 340 q 620 329 585 329 z m 545 141 l 117 141 q 83 141 72 151 q 60 161 60 180 q 60 210 88 230 q 104 241 138 241 l 566 241 q 600 241 612 230 q 624 220 624 201 q 624 171 595 151 q 580 141 545 141 z"},"a":{"x_min":0,"x_max":600,"ha":600,"o":"m 390 0 l 395 23 q 311 -16 218 -16 q 148 -16 107 19 q 66 54 66 99 q 66 136 95 176 q 133 231 199 261 q 266 292 347 292 q 392 292 450 282 l 455 306 q 456 311 456 315 q 456 333 441 343 q 423 356 373 356 q 327 356 254 339 q 227 333 211 333 q 195 333 184 343 q 173 354 173 372 q 173 396 189 412 q 205 428 275 442 q 345 457 395 457 q 477 457 518 423 q 559 389 559 340 q 559 324 555 306 l 511 100 l 528 100 q 562 100 574 90 q 585 80 585 61 q 585 30 557 10 q 542 0 507 0 z m 428 179 q 371 191 319 191 q 253 191 199 155 q 168 135 168 117 q 168 103 190 93 q 211 83 244 83 q 279 83 328 97 q 377 111 418 136 z"},"L":{"x_min":0,"x_max":600,"ha":600,"o":"m 363 492 l 280 100 l 495 100 l 515 195 q 523 231 540 246 q 558 262 580 262 q 597 262 608 251 q 620 240 620 225 q 620 215 616 195 l 574 0 l 100 0 q 66 0 54 10 q 42 21 42 40 q 42 70 71 89 q 86 100 121 100 l 179 100 l 263 492 l 204 492 q 171 492 159 502 q 147 513 147 532 q 147 562 175 582 q 191 592 226 592 l 442 592 q 476 592 488 582 q 500 571 500 552 q 500 522 471 502 q 456 492 421 492 z"},"3":{"x_min":0,"x_max":600,"ha":600,"o":"m 514 334 q 543 311 558 281 q 573 250 573 214 q 573 157 537 101 q 502 45 436 15 q 370 -15 270 -15 q 162 -15 109 18 q 80 36 80 60 q 80 83 98 103 q 117 122 141 122 q 155 122 171 109 q 187 97 206 92 q 234 85 284 85 q 354 85 392 98 q 430 111 450 136 q 470 162 470 190 q 470 216 452 240 q 434 265 403 277 q 383 285 334 288 q 312 289 302 300 q 292 310 292 327 q 292 351 311 370 q 330 389 355 389 q 407 389 413 390 q 437 393 460 407 q 483 420 497 442 q 510 464 510 484 q 510 511 487 530 q 464 548 413 548 q 341 548 294 506 q 271 485 249 485 q 231 485 220 497 q 208 508 208 525 q 208 561 256 594 q 335 648 443 648 q 524 648 568 607 q 612 566 612 504 q 612 455 588 413 q 563 370 514 334 z"},";":{"x_min":0,"x_max":600,"ha":600,"o":"m 365 308 q 333 308 318 322 q 302 337 302 361 q 302 392 328 417 q 354 441 393 441 q 425 441 440 427 q 456 412 456 389 q 456 356 430 332 q 404 308 365 308 z m 250 146 l 378 146 l 188 -83 q 169 -106 156 -106 q 146 -106 139 -100 q 132 -94 132 -86 q 132 -80 139 -66 z"},"J":{"x_min":0,"x_max":600,"ha":600,"o":"m 593 492 l 529 189 q 517 132 490 98 q 450 45 387 15 q 325 -15 266 -15 q 187 -15 65 52 l 100 216 q 107 252 125 268 q 142 283 165 283 q 182 283 193 272 q 205 261 205 246 q 205 237 200 216 l 179 118 q 241 85 289 85 q 316 85 347 98 q 377 110 395 127 q 413 144 420 159 q 424 168 431 201 l 493 492 l 371 492 q 338 492 326 502 q 314 513 314 532 q 314 562 342 582 q 358 592 393 592 l 673 592 q 706 592 718 582 q 730 571 730 552 q 730 522 702 502 q 687 492 651 492 z"},"V":{"x_min":0,"x_max":600,"ha":600,"o":"m 331 146 l 550 492 l 527 492 q 493 492 481 502 q 469 513 469 532 q 469 562 498 582 q 513 592 548 592 l 682 592 q 715 592 727 582 q 739 571 739 552 q 739 522 711 502 q 695 492 658 492 l 348 0 l 252 0 l 151 492 q 115 492 105 501 q 91 513 91 532 q 91 562 120 582 q 135 592 170 592 l 305 592 q 338 592 350 582 q 362 571 362 552 q 362 522 333 502 q 318 492 284 492 l 260 492 z"},"\"":{"x_min":0,"x_max":600,"ha":600,"o":"m 257 604 l 386 604 l 303 365 q 297 346 287 339 q 278 332 265 332 q 253 332 247 338 q 240 344 240 354 q 240 357 241 364 z m 466 604 l 595 604 l 512 365 q 506 346 496 339 q 487 332 474 332 q 462 332 456 338 q 449 344 449 354 q 449 357 450 364 z"},"7":{"x_min":0,"x_max":600,"ha":600,"o":"m 516 532 l 288 532 q 279 502 263 489 q 247 477 226 477 q 208 477 197 487 q 186 498 186 513 q 186 523 190 543 l 208 632 l 643 632 l 622 532 l 357 49 q 342 21 330 12 q 313 -1 294 -1 q 276 -1 264 10 q 252 22 252 39 q 252 52 269 82 z"},"S":{"x_min":0,"x_max":600,"ha":600,"o":"m 159 25 q 143 10 133 5 q 124 1 112 1 q 94 1 83 12 q 72 22 72 38 q 72 47 76 67 l 90 135 q 98 171 115 186 q 132 202 155 202 q 173 202 183 192 q 193 183 195 161 q 196 139 202 131 q 214 116 246 101 q 279 85 321 85 q 381 85 428 111 q 476 137 476 175 q 476 190 465 204 q 454 218 428 228 q 412 233 344 247 q 277 260 242 277 q 208 294 188 324 q 169 355 169 394 q 169 485 250 546 q 332 607 427 607 q 465 607 496 598 q 527 590 551 572 q 575 591 594 591 q 611 591 623 581 q 634 570 634 555 q 634 545 630 525 l 614 450 q 606 414 589 398 q 572 383 550 383 q 529 383 518 396 q 511 404 511 428 q 511 452 505 463 q 495 481 469 494 q 443 507 406 507 q 346 507 303 473 q 271 448 271 418 q 271 391 294 375 q 310 363 368 351 q 464 331 494 318 q 536 301 557 271 q 579 240 579 202 q 579 148 549 99 q 519 50 452 18 q 385 -15 308 -15 q 266 -15 229 -5 q 192 5 159 25 z"},"}":{"x_min":0,"x_max":600,"ha":600,"o":"m 329 243 q 313 268 313 291 q 313 309 318 333 l 352 492 q 354 501 354 508 q 354 519 348 524 q 342 530 325 531 q 308 533 297 543 q 287 554 287 570 q 287 595 306 614 q 326 632 353 632 q 380 632 403 620 q 426 607 441 581 q 457 555 457 529 q 457 514 454 500 l 418 333 q 416 323 416 315 q 416 306 421 301 q 427 295 446 293 q 464 292 474 282 q 483 272 483 256 q 483 231 467 213 q 451 196 422 192 q 401 189 395 183 q 384 173 380 153 l 342 -23 q 331 -78 283 -117 q 236 -156 184 -156 q 164 -156 153 -145 q 141 -134 141 -117 q 141 -94 158 -76 q 175 -58 203 -55 q 222 -53 229 -46 q 240 -36 244 -16 l 278 143 q 287 185 296 203 q 306 222 329 243 z"},"Z":{"x_min":0,"x_max":600,"ha":600,"o":"m 223 100 l 450 100 l 466 174 q 474 210 491 226 q 508 241 531 241 q 548 241 559 230 q 570 219 570 205 q 570 194 566 174 l 529 0 l 74 0 l 95 100 l 483 492 l 299 492 l 284 420 q 276 384 259 368 q 242 353 219 353 q 202 353 191 364 q 179 375 179 390 q 179 399 184 420 l 220 592 l 634 592 l 613 494 z"},"x":{"x_min":0,"x_max":600,"ha":600,"o":"m 424 230 l 548 100 q 572 99 583 89 q 594 78 594 61 q 594 30 564 10 q 550 0 515 0 l 401 0 q 368 0 356 10 q 344 21 344 40 q 344 60 358 77 q 373 95 396 100 l 335 165 l 246 100 q 264 95 272 86 q 280 77 280 63 q 280 30 250 10 q 235 0 201 0 l 88 0 q 55 0 43 10 q 31 21 31 40 q 31 62 49 80 q 66 98 97 100 l 273 231 l 166 343 q 144 345 133 355 q 123 366 123 383 q 123 412 150 432 q 166 443 201 443 l 295 443 q 329 443 341 433 q 353 422 353 404 q 353 369 314 347 l 364 296 l 435 348 q 416 364 416 382 q 416 412 443 432 q 459 443 495 443 l 588 443 q 621 443 633 433 q 645 422 645 404 q 645 381 628 364 q 610 346 580 343 z"},")":{"x_min":0,"x_max":600,"ha":600,"o":"m 136 -156 q 117 -156 106 -145 q 94 -134 94 -118 q 94 -97 114 -73 q 209 42 251 144 q 293 246 293 348 q 293 447 249 559 q 243 573 243 581 q 243 605 262 624 q 281 642 305 642 q 321 642 331 634 q 345 623 362 576 q 385 515 397 456 q 406 412 406 362 q 406 260 373 167 q 339 75 275 -18 q 211 -110 175 -141 q 157 -156 136 -156 z"},"&":{"x_min":0,"x_max":600,"ha":600,"o":"m 446 199 l 488 284 l 540 284 q 573 284 583 274 q 597 263 597 245 q 597 221 580 203 q 563 185 542 184 q 519 132 494 100 q 535 100 545 92 q 559 80 559 61 q 559 31 530 11 q 515 0 480 0 l 420 0 l 413 16 q 387 0 364 -6 q 334 -15 292 -15 q 214 -15 175 20 q 136 55 136 109 q 136 164 171 219 q 206 273 273 308 q 256 352 256 377 q 256 417 282 461 q 309 505 355 531 q 402 558 446 558 q 462 558 479 553 q 496 549 513 541 q 532 548 541 548 q 558 548 570 537 q 581 525 581 508 q 581 488 567 472 q 558 460 528 446 l 481 423 q 463 444 449 452 q 439 458 425 458 q 398 458 378 438 q 358 419 358 399 q 358 384 375 348 z m 313 224 q 275 208 257 182 q 239 156 239 131 q 239 110 255 98 q 271 85 312 85 q 343 85 372 100 z"},"_":{"x_min":0,"x_max":600,"ha":600,"o":"m 513 -300 l -37 -300 q -70 -300 -82 -290 q -94 -280 -94 -261 q -94 -231 -65 -211 q -50 -200 -15 -200 l 535 -200 q 568 -200 580 -211 q 592 -221 592 -240 q 592 -271 562 -290 q 548 -300 513 -300 z"},"v":{"x_min":0,"x_max":600,"ha":600,"o":"m 327 122 l 481 343 q 440 343 430 352 q 416 363 416 383 q 416 413 444 433 q 459 443 494 443 l 631 443 q 665 443 677 433 q 688 422 688 403 q 688 375 661 354 q 646 343 610 343 l 593 343 l 353 0 l 249 0 l 154 343 l 140 343 q 106 343 94 354 q 83 364 83 383 q 83 413 111 433 q 126 443 161 443 l 295 443 q 329 443 341 433 q 353 422 353 403 q 353 387 341 371 q 330 354 313 348 q 301 343 265 343 z"},"O":{"x_min":0,"x_max":600,"ha":600,"o":"m 298 -15 q 204 -15 139 52 q 75 118 75 221 q 75 316 125 409 q 176 501 270 558 q 351 607 430 607 q 523 607 588 541 q 652 475 652 374 q 652 295 619 220 q 586 145 535 94 q 483 44 421 15 q 359 -15 298 -15 z m 319 85 q 370 85 427 122 q 483 158 516 222 q 549 286 549 350 q 549 419 508 463 q 467 507 408 507 q 358 507 302 471 q 246 436 212 373 q 178 309 178 244 q 178 173 219 129 q 260 85 319 85 z"},"(":{"x_min":0,"x_max":600,"ha":600,"o":"m 575 642 q 593 642 605 631 q 616 620 616 604 q 616 583 596 559 q 501 442 459 342 q 417 241 417 139 q 417 42 462 -73 q 468 -88 468 -94 q 468 -119 449 -137 q 430 -156 405 -156 q 389 -156 380 -148 q 366 -137 348 -90 q 325 -29 313 30 q 305 74 305 124 q 305 226 338 319 q 371 411 435 503 q 500 596 536 627 q 553 642 575 642 z"},"C":{"x_min":0,"x_max":600,"ha":600,"o":"m 578 566 q 590 579 602 585 q 614 592 626 592 q 644 592 655 581 q 667 570 667 555 q 667 545 663 525 l 645 440 q 637 404 619 389 q 602 374 581 374 q 562 374 552 384 q 542 394 542 412 l 542 432 q 542 458 516 478 q 476 507 417 507 q 372 507 330 487 q 288 468 250 423 q 212 379 199 319 l 186 254 q 181 235 181 216 q 181 161 224 123 q 266 85 347 85 q 402 85 444 100 q 469 109 500 135 q 520 151 529 156 q 539 160 550 160 q 567 160 579 148 q 591 137 591 120 q 591 84 532 43 q 448 -15 323 -15 q 248 -15 190 15 q 132 44 106 91 q 79 139 79 202 q 79 225 85 252 l 100 320 q 126 444 223 526 q 320 607 434 607 q 478 607 513 597 q 549 587 578 566 z"},"W":{"x_min":0,"x_max":600,"ha":600,"o":"m 361 284 l 208 0 l 95 0 l 140 492 q 121 494 112 504 q 103 514 103 528 q 103 561 131 581 q 146 592 182 592 l 315 592 q 349 592 361 582 q 373 571 373 552 q 373 522 344 502 q 329 492 294 492 l 242 492 l 215 212 l 343 445 l 448 445 l 476 212 l 569 492 l 517 492 q 483 492 471 502 q 459 513 459 532 q 459 562 488 582 q 503 592 538 592 l 671 592 q 704 592 716 582 q 728 571 728 552 q 728 531 712 514 q 696 496 669 492 l 507 0 l 396 0 z"},"A":{"x_min":0,"x_max":600,"ha":600,"o":"m 457 161 l 213 161 l 176 100 l 200 100 q 234 100 246 90 q 257 80 257 61 q 257 30 229 10 q 213 0 179 0 l 44 0 q 11 0 -1 10 q -13 21 -13 40 q -13 65 7 83 q 27 101 68 100 l 309 492 l 243 492 q 209 492 198 502 q 186 513 186 532 q 186 562 214 582 q 229 592 264 592 l 480 592 l 575 100 q 609 101 622 90 q 635 80 635 61 q 635 30 605 10 q 591 0 556 0 l 421 0 q 388 0 376 10 q 364 21 364 40 q 364 69 393 89 q 408 100 443 100 l 467 100 z m 436 261 l 397 459 l 274 261 z"},"f":{"x_min":0,"x_max":600,"ha":600,"o":"m 372 343 l 321 100 l 463 100 q 497 100 508 90 q 520 80 520 61 q 520 30 491 10 q 476 0 442 0 l 139 0 q 106 0 94 10 q 82 21 82 40 q 82 70 110 89 q 126 100 161 100 l 221 100 l 272 343 l 224 343 q 191 343 179 354 q 167 364 167 383 q 167 412 194 432 q 210 443 245 443 l 293 443 l 302 481 q 315 548 374 591 q 432 633 525 633 q 561 633 614 626 q 667 620 680 608 q 694 597 694 580 q 694 555 676 536 q 657 518 634 518 q 625 518 607 521 q 547 533 500 533 q 450 533 428 518 q 406 503 402 481 l 394 443 l 548 443 q 581 443 593 433 q 605 422 605 404 q 605 374 577 354 q 562 343 526 343 z"},"Q":{"x_min":0,"x_max":600,"ha":600,"o":"m 320 -14 l 316 -18 q 336 -18 363 -24 q 390 -29 408 -39 q 426 -48 438 -48 q 456 -48 485 -31 q 514 -15 528 -15 q 546 -15 558 -26 q 569 -37 569 -54 q 569 -89 524 -114 q 464 -148 416 -148 q 399 -148 388 -145 q 376 -143 349 -131 q 321 -120 296 -120 q 278 -120 249 -125 q 191 -134 162 -142 q 143 -146 132 -146 q 117 -146 105 -135 q 94 -123 94 -107 q 94 -79 123 -55 l 200 7 q 143 35 109 91 q 75 147 75 221 q 75 316 125 409 q 175 501 270 558 q 350 607 429 607 q 523 607 587 541 q 651 475 651 372 q 651 281 606 193 q 562 105 480 50 q 399 -6 320 -14 z m 318 85 q 370 85 426 122 q 483 158 516 222 q 549 286 549 350 q 549 419 508 463 q 467 507 408 507 q 358 507 302 471 q 246 436 211 373 q 177 309 177 244 q 177 173 218 129 q 259 85 318 85 z"},"w":{"x_min":0,"x_max":600,"ha":600,"o":"m 340 185 l 231 0 l 137 0 l 126 343 q 102 344 91 355 q 81 366 81 383 q 81 413 109 433 q 124 443 159 443 l 252 443 q 286 443 298 433 q 310 422 310 403 q 310 374 282 354 q 266 343 229 343 l 233 185 l 330 347 l 419 347 l 447 185 l 519 343 q 481 343 471 352 q 457 364 457 383 q 457 413 485 433 q 500 443 535 443 l 629 443 q 663 443 675 433 q 687 422 687 403 q 687 381 669 364 q 652 346 622 343 l 467 0 l 374 0 z"},"-":{"x_min":0,"x_max":600,"ha":600,"o":"m 560 238 l 142 238 l 162 330 l 580 330 z"},"E":{"x_min":0,"x_max":600,"ha":600,"o":"m 250 247 l 218 100 l 474 100 l 485 154 q 493 190 510 206 q 527 221 550 221 q 567 221 578 210 q 590 199 590 184 q 590 174 585 154 l 553 0 l 81 0 q 48 0 36 10 q 24 21 24 40 q 24 69 52 89 q 68 100 103 100 l 118 100 l 201 492 l 186 492 q 152 492 140 502 q 128 513 128 532 q 128 562 157 582 q 172 592 207 592 l 657 592 l 624 439 q 617 403 599 388 q 582 373 560 373 q 542 373 531 384 q 520 395 520 410 q 520 419 524 439 l 535 492 l 302 492 l 271 347 l 359 347 q 367 386 376 397 q 397 421 425 421 q 442 421 454 411 q 465 400 465 385 q 465 375 460 354 l 436 239 q 429 207 419 195 q 398 172 371 172 q 354 172 343 183 q 332 194 332 209 q 332 220 337 247 z"},"s":{"x_min":0,"x_max":600,"ha":600,"o":"m 477 326 q 456 341 431 349 q 406 356 376 356 q 328 356 294 344 q 261 331 261 317 q 261 309 272 301 q 287 290 343 282 q 430 270 470 257 q 511 244 535 214 q 559 185 559 149 q 559 78 481 31 q 404 -16 302 -16 q 259 -16 223 -9 q 188 -1 160 14 q 142 0 125 0 q 106 0 95 11 q 83 22 83 38 q 83 47 88 67 l 95 101 q 103 138 120 153 q 137 168 160 168 q 178 168 188 158 q 197 148 199 124 q 218 104 248 94 q 278 84 320 84 q 394 84 437 108 q 456 119 456 132 q 456 151 432 163 q 409 173 333 182 q 226 193 192 222 q 158 250 158 294 q 158 333 183 368 q 208 402 258 426 q 322 457 396 457 q 431 457 462 450 q 493 443 519 430 q 540 443 554 443 q 569 443 581 432 q 592 421 592 407 q 592 396 588 376 l 583 352 q 575 316 557 301 q 540 285 518 285 q 500 285 488 296 q 477 308 477 326 z"},">":{"x_min":0,"x_max":600,"ha":600,"o":"m 466 285 l 180 465 q 161 477 156 485 q 150 493 150 506 q 150 530 169 549 q 188 568 212 568 q 225 568 249 554 l 674 285 l 134 17 q 105 2 92 2 q 74 2 63 14 q 51 25 51 44 q 51 63 65 80 q 74 91 104 105 z"},"l":{"x_min":0,"x_max":600,"ha":600,"o":"m 485 633 l 372 100 l 492 100 q 525 100 537 90 q 549 80 549 61 q 549 30 520 10 q 505 0 471 0 l 130 0 q 97 0 85 10 q 73 21 73 40 q 73 70 101 89 q 117 100 151 100 l 271 100 l 364 533 l 283 533 q 250 533 238 544 q 226 554 226 573 q 226 603 254 623 q 270 633 304 633 z"},"8":{"x_min":0,"x_max":600,"ha":600,"o":"m 510 320 q 535 297 547 269 q 559 241 559 208 q 559 153 527 99 q 494 45 431 15 q 369 -15 296 -15 q 207 -15 161 26 q 114 66 114 130 q 114 182 143 232 q 172 282 228 320 q 207 344 197 370 q 186 396 186 425 q 186 477 219 531 q 253 585 313 616 q 374 648 438 648 q 519 648 565 605 q 611 562 611 497 q 611 447 586 403 q 561 359 510 320 z m 377 369 q 434 369 470 401 q 506 434 506 477 q 506 506 483 527 q 460 548 417 548 q 360 548 324 515 q 288 482 288 440 q 288 410 311 389 q 334 369 377 369 z m 319 85 q 386 85 421 114 q 456 143 456 182 q 456 217 429 242 q 402 268 356 268 q 301 268 259 229 q 216 190 216 150 q 216 123 236 108 q 266 85 319 85 z"},"\\":{"x_min":0,"x_max":600,"ha":600,"o":"m 326 662 l 501 -26 q 504 -40 504 -61 q 504 -80 487 -96 q 469 -112 446 -112 q 428 -112 418 -104 q 408 -96 401 -69 l 227 620 q 222 639 222 648 q 222 669 240 688 q 259 706 283 706 q 300 706 310 698 q 319 689 326 662 z"},"e":{"x_min":0,"x_max":600,"ha":600,"o":"m 588 171 l 177 171 q 184 132 218 108 q 252 84 321 84 q 377 84 475 108 q 515 118 530 118 q 546 118 557 107 q 568 97 568 80 q 568 55 546 35 q 523 16 441 0 q 358 -16 292 -16 q 188 -16 131 36 q 74 89 74 170 q 74 238 115 307 q 156 375 233 416 q 309 457 390 457 q 484 457 543 404 q 602 352 602 258 q 602 238 597 213 z m 498 271 q 485 312 452 334 q 419 356 368 356 q 317 356 275 335 q 234 314 202 271 z"},"b":{"x_min":0,"x_max":600,"ha":600,"o":"m 309 633 l 261 409 q 344 457 423 457 q 512 457 568 402 q 624 347 624 266 q 624 196 587 129 q 549 62 475 23 q 401 -16 319 -16 q 239 -16 179 24 l 174 0 l 57 0 q 23 0 11 10 q 0 21 0 40 q 0 69 28 89 q 43 100 78 100 l 95 100 l 187 533 l 170 533 q 137 533 125 544 q 113 554 113 573 q 113 603 141 623 q 157 633 191 633 z m 341 84 q 423 84 472 129 q 521 175 521 243 q 521 291 487 324 q 454 356 399 356 q 327 356 271 302 q 216 248 216 182 q 216 139 247 111 q 278 84 341 84 z"},"%":{"x_min":0,"x_max":600,"ha":600,"o":"m 308 345 q 259 345 227 376 q 195 408 195 457 q 195 522 248 575 q 301 627 371 627 q 420 627 452 596 q 484 564 484 517 q 484 450 431 397 q 377 345 308 345 z m 322 406 q 360 406 390 436 q 420 465 420 503 q 420 530 403 548 q 385 565 357 565 q 318 565 288 536 q 258 506 258 470 q 258 442 276 424 q 294 406 322 406 z m 567 337 l 172 217 q 158 213 151 213 q 142 213 135 220 q 129 227 129 239 q 129 251 137 260 q 145 270 166 276 l 561 396 q 575 400 582 400 q 591 400 597 394 q 604 387 604 375 q 604 362 596 353 q 588 343 567 337 z m 358 -15 q 309 -15 277 17 q 245 49 245 97 q 245 163 298 216 q 352 268 420 268 q 470 268 502 237 q 534 205 534 158 q 534 90 480 38 q 427 -15 358 -15 z m 372 47 q 411 47 441 77 q 471 106 471 145 q 471 171 453 188 q 435 206 407 206 q 368 206 338 177 q 308 147 308 110 q 308 83 326 65 q 344 47 372 47 z"},"m":{"x_min":0,"x_max":600,"ha":600,"o":"m 232 443 l 229 414 q 260 438 282 447 q 305 457 328 457 q 376 457 409 414 q 439 436 468 446 q 497 457 525 457 q 577 457 606 428 q 636 400 636 354 q 636 340 632 324 l 585 100 q 614 100 625 90 q 637 79 637 61 q 637 30 608 10 q 593 0 559 0 l 463 0 l 531 316 q 533 327 533 335 q 533 345 526 351 q 520 356 506 356 q 489 356 474 348 q 453 336 419 302 l 376 100 q 405 100 417 90 q 429 79 429 61 q 429 30 400 10 q 385 0 350 0 l 255 0 l 322 316 q 324 326 324 334 q 324 344 317 350 q 311 356 297 356 q 279 356 263 347 q 241 335 209 302 l 167 100 q 195 100 207 90 q 219 79 219 61 q 219 30 190 10 q 175 0 140 0 l 50 0 q 17 0 5 10 q -7 21 -7 40 q -7 64 12 82 q 32 101 66 100 l 118 343 q 89 343 77 354 q 65 365 65 383 q 65 412 93 432 q 109 443 144 443 z"},"#":{"x_min":0,"x_max":600,"ha":600,"o":"m 543 451 l 567 451 q 601 451 613 440 q 625 430 625 411 q 625 380 596 361 q 581 351 546 351 l 515 351 l 484 241 l 502 241 q 536 241 548 231 q 560 220 560 201 q 560 171 531 151 q 516 141 481 141 l 456 141 l 408 -31 q 406 -35 393 -65 q 386 -77 371 -85 q 356 -94 342 -94 q 326 -94 314 -83 q 303 -71 303 -57 q 303 -46 310 -23 l 356 141 l 282 141 l 233 -30 q 226 -56 223 -61 q 215 -76 200 -85 q 185 -94 168 -94 q 151 -94 140 -83 q 128 -71 128 -57 q 128 -46 135 -23 l 181 141 l 157 141 q 123 141 111 152 q 99 162 99 181 q 99 210 127 230 q 143 241 178 241 l 209 241 l 240 351 l 222 351 q 188 351 177 361 q 165 372 165 390 q 165 420 193 440 q 208 451 243 451 l 269 451 l 317 623 q 324 648 328 654 q 336 668 351 677 q 366 686 382 686 q 399 686 410 675 q 422 664 422 649 q 422 637 416 615 l 369 451 l 443 451 l 492 623 q 501 658 518 672 q 535 686 557 686 q 574 686 586 675 q 597 664 597 647 q 597 636 590 615 z m 415 351 l 341 351 l 310 241 l 384 241 z"},",":{"x_min":0,"x_max":600,"ha":600,"o":"m 305 135 l 439 135 l 237 -137 q 220 -161 200 -161 q 189 -161 182 -154 q 175 -147 175 -138 q 175 -130 183 -114 z"},"n":{"x_min":0,"x_max":600,"ha":600,"o":"m 292 443 l 288 410 q 322 435 352 446 q 382 457 422 457 q 499 457 538 422 q 578 387 578 331 q 578 310 573 286 l 533 100 q 562 100 574 90 q 585 79 585 61 q 585 30 557 10 q 542 0 507 0 l 417 0 q 383 0 371 10 q 359 21 359 40 q 359 64 379 82 q 399 101 433 100 l 473 289 q 476 301 476 311 q 476 330 461 341 q 441 356 401 356 q 367 356 338 343 q 309 330 259 286 l 220 100 q 259 100 270 92 q 284 80 284 61 q 284 30 255 10 q 240 0 205 0 l 91 0 q 58 0 46 10 q 34 21 34 40 q 34 71 64 91 q 79 100 120 100 l 171 343 q 143 343 131 354 q 119 365 119 383 q 119 412 146 432 q 162 443 197 443 z"},"h":{"x_min":0,"x_max":600,"ha":600,"o":"m 332 633 l 286 420 q 356 457 423 457 q 498 457 537 421 q 577 386 577 329 q 577 310 572 288 l 532 100 q 572 100 582 92 q 596 80 596 61 q 596 30 567 10 q 552 0 518 0 l 404 0 q 370 0 358 10 q 347 21 347 40 q 347 71 376 91 q 392 101 432 100 l 470 281 q 474 296 474 309 q 474 329 457 343 q 439 356 401 356 q 368 356 339 344 q 311 331 258 288 l 218 100 q 258 100 268 92 q 282 80 282 61 q 282 30 253 10 q 238 0 204 0 l 90 0 q 57 0 45 10 q 33 21 33 40 q 33 71 63 91 q 78 101 118 100 l 210 533 l 193 533 q 160 533 148 544 q 136 554 136 573 q 136 603 164 623 q 180 633 214 633 z"},"z":{"x_min":0,"x_max":600,"ha":600,"o":"m 268 100 l 443 100 q 451 128 468 142 q 484 156 505 156 q 522 156 534 145 q 545 134 545 119 q 545 109 541 89 l 522 0 l 86 0 l 104 83 l 423 343 l 270 343 q 261 302 251 291 q 231 267 203 267 q 186 267 174 278 q 163 289 163 304 q 163 313 167 333 l 191 443 l 605 443 l 588 361 z"},"B":{"x_min":0,"x_max":600,"ha":600,"o":"m 117 100 l 200 492 l 184 492 q 151 492 139 502 q 127 513 127 532 q 127 562 155 582 q 171 592 206 592 l 457 592 q 536 592 580 553 q 624 513 624 457 q 624 414 604 377 q 584 340 544 309 q 578 286 594 257 q 610 227 610 190 q 610 146 589 109 q 568 72 541 51 q 515 30 472 15 q 430 0 374 0 l 80 0 q 46 0 34 10 q 22 21 22 40 q 22 69 51 89 q 66 100 101 100 z m 269 346 l 379 346 q 442 346 482 375 q 521 403 521 436 q 521 459 501 476 q 480 492 430 492 l 300 492 z m 217 100 l 390 100 q 456 100 482 120 q 508 140 508 167 q 508 196 476 221 q 445 246 380 246 l 248 246 z"},"K":{"x_min":0,"x_max":600,"ha":600,"o":"m 241 211 l 217 100 l 254 100 q 287 100 299 90 q 311 80 311 61 q 311 30 282 10 q 267 0 232 0 l 80 0 q 47 0 35 10 q 23 21 23 40 q 23 69 51 89 q 67 100 102 100 l 117 100 l 200 492 l 185 492 q 151 492 139 502 q 127 513 127 532 q 127 562 156 582 q 171 592 206 592 l 358 592 q 392 592 404 582 q 416 571 416 552 q 416 522 386 502 q 372 492 337 492 l 301 492 l 269 343 l 479 496 q 460 512 460 529 q 460 561 489 582 q 504 592 539 592 l 641 592 q 675 592 687 582 q 699 571 699 552 q 699 528 679 510 q 659 492 624 492 l 410 334 q 455 306 486 246 q 518 186 533 100 l 560 100 q 593 100 605 90 q 617 80 617 61 q 617 30 588 10 q 573 0 539 0 l 448 0 q 433 74 412 136 q 392 197 370 223 q 348 248 313 263 z"},"R":{"x_min":0,"x_max":600,"ha":600,"o":"m 245 226 l 218 100 l 255 100 q 288 100 300 90 q 312 80 312 61 q 312 30 283 10 q 268 0 233 0 l 81 0 q 48 0 36 10 q 24 21 24 40 q 24 69 52 89 q 68 100 103 100 l 118 100 l 201 492 l 186 492 q 152 492 140 502 q 128 513 128 532 q 128 562 157 582 q 172 592 207 592 l 434 592 q 528 592 575 551 q 622 509 622 445 q 622 387 585 341 q 549 294 476 258 q 501 231 527 188 q 544 161 570 100 q 609 100 621 90 q 633 81 633 61 q 633 30 604 10 q 589 0 555 0 l 498 0 q 457 96 417 152 q 378 208 344 226 z m 266 326 l 344 326 q 382 326 412 335 q 451 347 477 363 q 496 375 508 391 q 520 408 520 426 q 520 452 495 472 q 469 492 417 492 l 302 492 z"},"T":{"x_min":0,"x_max":600,"ha":600,"o":"m 453 492 l 370 100 l 438 100 q 471 100 483 90 q 495 79 495 61 q 495 31 466 11 q 451 0 416 0 l 181 0 q 148 0 136 10 q 124 21 124 40 q 124 70 152 89 q 168 100 203 100 l 270 100 l 353 492 l 245 492 l 225 397 q 217 361 200 345 q 183 330 160 330 q 143 330 131 341 q 120 352 120 367 q 120 377 125 397 l 166 592 l 684 592 l 643 397 q 635 361 618 345 q 601 330 578 330 q 561 330 550 341 q 539 352 539 367 q 539 377 542 397 l 563 492 z"},"P":{"x_min":0,"x_max":600,"ha":600,"o":"m 238 203 l 216 100 l 317 100 q 351 100 363 90 q 375 80 375 61 q 375 30 346 10 q 331 0 296 0 l 79 0 q 46 0 34 10 q 22 21 22 40 q 22 69 50 89 q 66 100 101 100 l 116 100 l 199 492 l 184 492 q 150 492 138 502 q 126 513 126 532 q 126 562 155 582 q 170 592 205 592 l 436 592 q 525 592 573 549 q 620 506 620 439 q 620 389 592 340 q 571 304 542 280 q 489 238 442 220 q 394 203 333 203 z m 260 303 l 352 303 q 400 303 446 325 q 481 341 499 368 q 518 394 518 419 q 518 449 492 470 q 466 492 415 492 l 300 492 z"},"|":{"x_min":0,"x_max":600,"ha":600,"o":"m 351 536 l 351 -60 q 351 -111 348 -121 q 344 -136 331 -146 q 317 -156 301 -156 q 284 -156 270 -146 q 257 -136 253 -120 q 250 -111 250 -60 l 250 536 q 250 587 253 597 q 257 611 270 622 q 284 632 301 632 q 317 632 331 622 q 344 611 348 596 q 351 586 351 536 z"},"t":{"x_min":0,"x_max":600,"ha":600,"o":"m 337 343 l 294 143 q 291 127 291 118 q 291 104 303 97 q 322 84 367 84 q 444 84 517 117 q 544 129 559 129 q 575 129 586 118 q 597 107 597 90 q 597 67 579 50 q 553 25 476 5 q 399 -16 343 -16 q 296 -16 254 0 q 224 11 205 35 q 187 60 187 91 q 187 107 190 123 l 237 343 l 200 343 q 167 343 155 354 q 143 364 143 383 q 143 413 171 433 q 187 443 222 443 l 258 443 l 277 534 q 285 570 302 585 q 319 601 342 601 q 359 601 370 590 q 382 579 382 564 q 382 554 377 534 l 358 443 l 543 443 q 577 443 589 433 q 601 422 601 403 q 601 375 573 354 q 557 343 522 343 z"},"M":{"x_min":0,"x_max":600,"ha":600,"o":"m 228 398 l 165 100 l 201 100 q 234 100 246 90 q 258 80 258 61 q 258 30 229 10 q 214 0 180 0 l 48 0 q 15 0 3 10 q -9 21 -9 40 q -9 64 10 82 q 30 101 64 100 l 147 492 q 125 494 115 504 q 104 515 104 532 q 104 562 132 582 q 148 592 183 592 l 292 592 l 365 291 l 562 592 l 673 592 q 707 592 719 582 q 730 571 730 552 q 730 530 713 512 q 696 495 666 492 l 583 100 q 611 100 623 90 q 635 79 635 61 q 635 30 606 10 q 591 0 556 0 l 425 0 q 392 0 380 10 q 368 21 368 40 q 368 69 396 89 q 411 100 446 100 l 482 100 l 546 398 l 376 141 l 290 141 z"},"g":{"x_min":0,"x_max":600,"ha":600,"o":"m 486 424 l 504 443 l 622 443 q 655 443 667 433 q 679 422 679 403 q 679 375 651 354 q 636 343 601 343 l 583 343 l 506 -21 q 495 -73 465 -112 q 435 -151 382 -180 q 329 -209 272 -209 l 159 -209 q 125 -209 114 -199 q 102 -188 102 -169 q 102 -139 130 -119 q 146 -109 180 -109 l 290 -109 q 336 -109 367 -84 q 397 -60 406 -21 l 416 28 q 378 6 342 -4 q 305 -15 269 -15 q 181 -15 127 37 q 74 89 74 168 q 74 239 113 307 q 151 375 222 417 q 293 458 370 458 q 402 458 427 450 q 453 443 486 424 z m 288 85 q 355 85 408 136 q 460 187 460 250 q 460 295 428 327 q 396 358 349 358 q 281 358 229 307 q 177 256 177 194 q 177 147 208 116 q 240 85 288 85 z"},"j":{"x_min":0,"x_max":600,"ha":600,"o":"m 535 633 l 513 527 l 393 527 l 416 633 z m 433 343 l 229 343 q 195 343 183 354 q 171 364 171 383 q 171 412 199 432 q 214 443 250 443 l 554 443 l 455 -21 q 444 -73 414 -112 q 384 -151 331 -180 q 279 -209 221 -209 l 108 -209 q 75 -209 63 -199 q 51 -188 51 -169 q 51 -140 79 -120 q 95 -109 129 -109 l 240 -109 q 285 -109 316 -84 q 347 -60 355 -21 z"},"i":{"x_min":0,"x_max":600,"ha":600,"o":"m 471 633 l 448 527 l 329 527 l 352 633 z m 444 443 l 371 100 l 492 100 q 525 100 537 90 q 549 80 549 61 q 549 30 520 10 q 505 0 470 0 l 129 0 q 96 0 84 10 q 72 21 72 40 q 72 70 101 89 q 116 100 151 100 l 271 100 l 323 343 l 242 343 q 209 343 197 354 q 185 364 185 383 q 185 412 213 432 q 228 443 264 443 z"},"y":{"x_min":0,"x_max":600,"ha":600,"o":"m 245 3 l 144 343 q 123 346 113 356 q 103 366 103 383 q 103 413 131 433 q 146 443 182 443 l 273 443 q 307 443 319 433 q 331 422 331 404 q 331 379 311 361 q 292 343 255 343 l 324 113 l 490 343 q 460 343 449 354 q 437 365 437 383 q 437 412 464 432 q 480 443 516 443 l 609 443 q 643 443 655 433 q 667 422 667 404 q 667 381 649 364 q 632 346 603 343 l 277 -109 q 316 -109 326 -118 q 340 -129 340 -148 q 340 -179 311 -199 q 296 -209 262 -209 l 43 -209 q 10 -209 -2 -199 q -14 -188 -14 -169 q -14 -140 14 -120 q 30 -109 64 -109 l 164 -109 z"},"@":{"x_min":0,"x_max":600,"ha":600,"o":"m 495 437 l 501 467 q 504 481 504 495 q 504 532 483 553 q 461 574 424 574 q 389 574 352 551 q 316 528 292 489 q 251 425 238 361 l 207 213 q 197 168 197 134 q 197 58 229 19 q 253 -10 303 -10 q 371 -10 407 21 q 427 36 439 36 q 453 36 461 28 q 469 20 469 6 q 469 -20 433 -44 q 375 -83 283 -83 q 207 -83 164 -34 q 122 15 122 123 q 122 161 131 206 l 166 367 q 189 478 258 557 q 337 648 439 648 q 504 648 542 611 q 580 573 580 506 q 580 489 575 467 l 518 200 q 533 193 533 175 q 533 157 518 143 q 503 129 474 129 l 429 129 l 430 132 q 406 129 394 129 q 345 129 311 163 q 277 197 277 245 q 277 313 338 372 q 398 430 495 437 z m 479 361 q 419 355 385 325 q 352 294 352 259 q 352 237 370 221 q 388 205 421 205 q 429 205 446 206 z"},".":{"x_min":0,"x_max":600,"ha":600,"o":"m 298 -16 q 266 -16 251 -2 q 235 13 235 37 q 235 68 261 93 q 287 117 326 117 q 357 117 373 102 q 389 88 389 64 q 389 33 363 8 q 337 -16 298 -16 z"},"p":{"x_min":0,"x_max":600,"ha":600,"o":"m 188 55 l 153 -109 l 213 -109 q 246 -109 258 -119 q 270 -130 270 -148 q 270 -179 241 -199 q 226 -209 191 -209 l 14 -209 q -19 -209 -31 -199 q -43 -188 -43 -169 q -43 -140 -15 -120 q 1 -109 36 -109 l 53 -109 l 149 343 l 132 343 q 98 343 86 354 q 74 364 74 383 q 74 412 102 432 q 118 443 153 443 l 270 443 l 263 409 q 343 457 423 457 q 513 457 569 402 q 626 347 626 269 q 626 208 587 147 q 548 86 474 48 q 399 10 330 10 q 252 10 188 55 z m 348 110 q 419 110 471 155 q 523 199 523 242 q 523 291 489 324 q 456 356 401 356 q 331 356 277 307 q 223 257 223 211 q 223 173 257 142 q 292 110 348 110 z"},"X":{"x_min":0,"x_max":600,"ha":600,"o":"m 430 302 l 554 100 q 581 100 593 89 q 604 79 604 61 q 604 30 575 10 q 560 0 525 0 l 413 0 q 380 0 368 10 q 356 21 356 40 q 356 67 380 86 q 396 99 424 100 l 350 224 l 222 100 q 247 99 258 89 q 269 78 269 61 q 269 30 240 10 q 225 0 190 0 l 78 0 q 44 0 32 10 q 21 21 21 40 q 21 64 40 82 q 59 100 92 100 l 301 303 l 183 492 q 157 492 146 503 q 134 514 134 532 q 134 562 163 582 q 178 592 213 592 l 306 592 q 339 592 351 582 q 363 571 363 552 q 363 533 348 515 q 339 504 312 492 l 382 380 l 498 492 q 480 502 475 509 q 469 518 469 532 q 469 562 497 582 q 513 592 547 592 l 639 592 q 673 592 685 582 q 697 571 697 552 q 697 528 677 510 q 658 492 627 492 z"},"*":{"x_min":0,"x_max":600,"ha":600,"o":"m 299 379 l 218 407 q 193 416 185 425 q 178 434 178 449 q 178 472 196 491 q 215 510 237 510 q 248 510 270 502 l 350 474 l 369 565 q 377 601 394 616 q 411 632 434 632 q 451 632 462 621 q 474 610 474 595 q 474 586 469 565 l 450 474 l 542 502 q 567 510 579 510 q 594 510 605 499 q 616 487 616 470 q 616 450 603 434 q 589 418 553 407 l 461 379 l 499 305 q 510 283 510 271 q 510 250 491 231 q 472 212 448 212 q 433 212 425 219 q 416 225 405 247 l 367 320 l 298 247 q 278 225 266 219 q 255 212 241 212 q 223 212 211 224 q 200 235 200 252 q 200 265 206 275 q 211 285 229 305 z"},"Y":{"x_min":0,"x_max":600,"ha":600,"o":"m 403 249 l 372 100 l 439 100 q 473 100 485 90 q 497 80 497 61 q 497 30 467 10 q 452 0 418 0 l 183 0 q 150 0 138 10 q 126 21 126 40 q 126 70 154 89 q 170 100 205 100 l 272 100 l 303 249 l 189 492 q 159 492 147 502 q 135 513 135 532 q 135 562 164 582 q 179 592 213 592 l 305 592 q 338 592 350 582 q 362 571 362 552 q 362 534 350 518 q 338 502 311 492 l 375 352 l 498 492 q 467 505 467 532 q 467 562 496 582 q 511 592 546 592 l 640 592 q 673 592 685 582 q 697 571 697 552 q 697 523 669 503 q 653 492 619 492 z"},"c":{"x_min":0,"x_max":600,"ha":600,"o":"m 546 425 q 568 442 587 442 q 604 442 615 431 q 627 420 627 405 q 627 396 623 376 l 609 312 q 601 275 584 260 q 567 245 544 245 q 523 245 512 257 q 503 266 503 292 q 503 319 485 333 q 451 356 388 356 q 292 356 236 285 q 197 235 197 180 q 197 136 231 110 q 265 83 351 83 q 413 83 455 96 q 480 104 506 123 q 531 142 548 142 q 565 142 577 130 q 588 118 588 101 q 588 65 540 35 q 460 -17 320 -17 q 205 -17 150 32 q 95 81 95 157 q 95 229 136 302 q 178 375 252 416 q 326 457 410 457 q 451 457 485 449 q 520 441 546 425 z"},"!":{"x_min":0,"x_max":600,"ha":600,"o":"m 488 534 l 396 232 q 389 208 372 196 q 356 183 337 183 q 317 183 306 193 q 295 204 295 225 q 295 228 296 232 l 333 534 q 337 576 349 597 q 360 619 385 634 q 410 648 435 648 q 462 648 481 631 q 500 613 500 589 q 500 571 488 534 z m 295 -15 q 269 -15 257 -3 q 244 8 244 27 q 244 50 264 69 q 285 87 316 87 q 342 87 355 76 q 367 65 367 47 q 367 23 347 4 q 327 -15 295 -15 z"},"/":{"x_min":0,"x_max":600,"ha":600,"o":"m 638 620 l 170 -71 q 152 -98 139 -106 q 125 -115 107 -115 q 90 -115 79 -104 q 67 -92 67 -75 q 67 -59 88 -29 l 557 662 q 574 688 586 696 q 601 706 618 706 q 636 706 647 695 q 659 684 659 666 q 659 650 638 620 z"},"[":{"x_min":0,"x_max":600,"ha":600,"o":"m 463 532 l 338 -56 l 398 -56 q 432 -56 444 -66 q 456 -77 456 -96 q 456 -125 427 -146 q 412 -156 377 -156 l 216 -156 l 384 632 l 544 632 q 577 632 589 621 q 601 611 601 592 q 601 562 573 542 q 558 532 522 532 z"},"6":{"x_min":0,"x_max":600,"ha":600,"o":"m 279 342 q 323 373 359 386 q 395 400 432 400 q 497 400 541 354 q 586 307 586 234 q 586 128 515 57 q 443 -15 339 -15 q 247 -15 202 32 q 157 80 157 182 q 157 394 290 521 q 422 648 562 648 q 617 648 647 627 q 666 614 666 593 q 666 569 647 550 q 627 531 604 531 q 592 531 572 543 q 561 550 548 550 q 502 550 445 523 q 388 497 337 439 q 303 400 279 342 z m 261 187 q 264 129 286 107 q 308 85 356 85 q 414 85 448 120 q 483 155 483 209 q 483 250 461 275 q 438 300 406 300 q 376 300 336 271 q 295 241 261 187 z"},"r":{"x_min":0,"x_max":600,"ha":600,"o":"m 374 443 l 361 381 q 434 427 473 442 q 513 457 544 457 q 587 457 620 430 q 653 403 653 381 q 653 357 634 338 q 614 319 590 319 q 572 319 555 338 q 539 356 522 356 q 504 356 464 336 q 423 315 333 251 l 301 100 l 443 100 q 477 100 489 90 q 500 80 500 61 q 500 30 472 10 q 457 0 422 0 l 120 0 q 86 0 74 10 q 62 21 62 40 q 62 70 91 89 q 106 100 141 100 l 201 100 l 252 343 l 216 343 q 183 343 171 354 q 159 364 159 383 q 159 412 187 432 q 202 443 238 443 z"},"2":{"x_min":0,"x_max":600,"ha":600,"o":"m 228 100 l 447 100 q 468 115 484 115 q 502 115 513 104 q 524 94 524 78 q 524 67 520 48 l 510 0 l 54 0 l 76 106 q 413 342 474 402 q 507 436 507 471 q 507 503 481 525 q 455 548 408 548 q 364 548 329 527 q 294 507 272 467 q 261 448 251 441 q 235 429 215 429 q 197 429 186 441 q 174 452 174 469 q 174 492 203 531 q 243 587 304 618 q 366 648 432 648 q 514 648 562 603 q 609 559 609 493 q 609 439 585 396 q 560 353 489 295 q 418 237 228 100 z"},"{":{"x_min":0,"x_max":600,"ha":600,"o":"m 372 243 q 388 218 388 196 q 388 178 381 143 l 347 -16 q 345 -25 345 -32 q 345 -42 351 -48 q 356 -54 374 -55 q 391 -56 402 -67 q 412 -78 412 -94 q 412 -119 393 -137 q 374 -156 347 -156 q 319 -156 296 -144 q 273 -131 258 -105 q 242 -79 242 -53 q 242 -38 246 -23 l 283 153 q 285 163 285 170 q 285 180 280 185 q 274 190 255 192 q 236 194 227 204 q 218 213 218 230 q 218 255 234 272 q 250 290 279 294 q 300 296 307 303 q 317 312 321 333 l 357 500 q 368 554 416 593 q 463 632 515 632 q 535 632 547 621 q 558 610 558 593 q 558 570 541 552 q 524 534 497 531 q 477 529 470 522 q 459 512 455 492 l 421 333 q 415 300 404 281 q 394 263 372 243 z"},"9":{"x_min":0,"x_max":600,"ha":600,"o":"m 497 263 q 452 230 418 217 q 384 204 350 204 q 281 204 236 251 q 190 299 190 377 q 190 464 250 543 q 328 648 445 648 q 524 648 572 595 q 620 542 620 431 q 620 327 591 250 q 563 172 508 117 q 453 62 387 28 q 301 -15 214 -15 q 164 -15 135 6 q 116 20 116 41 q 116 65 135 84 q 153 103 178 103 q 189 103 203 95 q 220 85 239 85 q 313 85 389 135 q 465 186 497 263 z m 517 420 q 515 490 490 519 q 465 548 424 548 q 374 548 333 504 q 293 459 293 396 q 293 353 315 328 q 336 304 369 304 q 403 304 440 333 q 477 362 517 420 z"}," ":{"x_min":0,"x_max":600,"ha":600,"o":""},"I":{"x_min":0,"x_max":600,"ha":600,"o":"m 455 492 l 372 100 l 473 100 q 506 100 518 90 q 530 80 530 61 q 530 30 501 10 q 486 0 452 0 l 149 0 q 116 0 104 10 q 92 21 92 40 q 92 70 120 89 q 136 100 170 100 l 271 100 l 354 492 l 253 492 q 220 492 208 502 q 196 513 196 532 q 196 562 225 582 q 240 592 275 592 l 577 592 q 611 592 623 582 q 634 571 634 552 q 634 522 605 502 q 590 492 556 492 z"},"H":{"x_min":0,"x_max":600,"ha":600,"o":"m 461 245 l 248 245 l 217 100 l 232 100 q 266 100 278 90 q 290 80 290 61 q 290 30 261 10 q 246 0 211 0 l 88 0 q 55 0 43 10 q 31 21 31 40 q 31 71 62 91 q 76 101 117 100 l 200 492 q 177 494 167 504 q 156 515 156 532 q 156 562 185 582 q 200 592 235 592 l 337 592 q 371 592 383 582 q 395 571 395 552 q 395 522 365 502 q 350 492 316 492 l 300 492 l 269 345 l 483 345 l 514 492 l 498 492 q 465 492 453 502 q 441 513 441 532 q 441 562 469 582 q 485 592 520 592 l 622 592 q 655 592 667 582 q 679 571 679 552 q 679 530 661 512 q 644 495 614 492 l 531 100 q 571 100 581 92 q 595 80 595 61 q 595 30 566 10 q 551 0 517 0 l 394 0 q 360 0 348 10 q 336 21 336 40 q 336 69 365 89 q 380 100 415 100 l 431 100 z"},"4":{"x_min":0,"x_max":600,"ha":600,"o":"m 581 632 l 498 240 q 526 241 538 230 q 550 219 550 201 q 550 176 531 158 q 511 140 477 140 l 468 100 q 497 100 509 90 q 521 79 521 61 q 521 31 492 11 q 477 0 442 0 l 307 0 q 274 0 262 10 q 250 21 250 40 q 250 69 278 89 q 294 100 329 100 l 368 100 l 376 140 l 104 140 l 122 224 l 449 632 z m 398 240 l 450 486 l 252 240 z"},"~":{"x_min":0,"x_max":600,"ha":600,"o":"m 565 356 q 583 356 594 345 q 606 333 606 316 q 606 292 582 268 q 549 235 518 212 q 472 180 430 180 q 403 180 378 194 q 353 207 317 250 q 293 278 285 284 q 278 288 273 288 q 260 288 216 248 q 190 224 179 218 q 168 212 157 212 q 140 212 128 224 q 116 236 116 253 q 116 270 128 287 q 140 303 173 331 q 206 358 235 373 q 264 388 293 388 q 321 388 347 374 q 372 360 408 314 q 427 291 436 285 q 443 280 449 280 q 457 280 463 285 q 478 293 510 324 q 531 345 542 350 q 553 356 565 356 z"},"D":{"x_min":0,"x_max":600,"ha":600,"o":"m 133 100 l 216 492 q 187 492 175 502 q 164 513 164 532 q 164 562 192 582 q 208 592 242 592 l 452 592 q 562 592 621 511 q 661 457 661 371 q 661 343 653 309 l 643 261 q 629 198 598 148 q 566 99 523 68 q 480 37 446 22 q 395 0 318 0 l 116 0 q 83 0 71 10 q 59 21 59 40 q 59 64 79 83 q 99 101 133 100 z m 233 100 l 339 100 q 401 100 441 121 q 480 143 507 177 q 533 212 544 264 l 554 312 q 559 334 559 353 q 559 418 523 455 q 487 492 422 492 l 316 492 z"},"^":{"x_min":0,"x_max":600,"ha":600,"o":"m 406 503 l 258 362 q 238 342 227 336 q 216 331 203 331 q 185 331 173 342 q 162 354 162 371 q 162 383 167 394 q 173 405 194 426 l 440 662 l 586 426 q 600 403 600 392 q 600 368 581 349 q 562 331 538 331 q 524 331 516 336 q 507 342 495 361 z"},"0":{"x_min":0,"x_max":600,"ha":600,"o":"m 598 372 l 574 262 q 553 162 483 80 q 402 -15 296 -15 q 222 -15 176 38 q 131 90 131 200 q 131 228 138 262 l 162 372 q 183 472 259 560 q 334 648 439 648 q 514 648 560 595 q 605 543 605 433 q 605 405 598 372 z m 498 372 q 503 398 503 422 q 503 488 479 518 q 455 548 417 548 q 372 548 334 511 q 279 455 262 372 l 238 262 q 232 235 232 211 q 232 145 257 115 q 281 85 319 85 q 364 85 401 123 q 457 178 474 262 z"},"F":{"x_min":0,"x_max":600,"ha":600,"o":"m 284 247 l 252 100 l 355 100 q 389 100 400 90 q 412 80 412 61 q 412 30 383 10 q 368 0 334 0 l 115 0 q 82 0 70 10 q 58 21 58 40 q 58 69 86 89 q 102 100 137 100 l 152 100 l 235 492 l 220 492 q 187 492 175 502 q 163 513 163 532 q 163 562 191 582 q 207 592 241 592 l 712 592 l 680 439 q 672 403 655 388 q 638 373 615 373 q 598 373 587 383 q 576 394 576 409 q 576 419 580 439 l 591 492 l 336 492 l 305 347 l 393 347 q 401 385 411 397 q 431 421 459 421 q 476 421 488 410 q 499 399 499 384 q 499 374 495 354 l 470 239 q 462 203 445 187 q 428 172 405 172 q 388 172 377 183 q 366 194 366 209 q 366 219 372 247 z"},"`":{"x_min":0,"x_max":600,"ha":600,"o":"m 331 649 l 422 560 q 435 547 435 537 q 435 523 424 512 q 413 501 398 501 q 388 501 375 514 l 284 603 q 271 616 271 627 q 271 640 282 651 q 293 662 308 662 q 318 662 331 649 z"},"k":{"x_min":0,"x_max":600,"ha":600,"o":"m 253 167 l 218 0 l 101 0 q 67 0 55 10 q 43 21 43 40 q 43 69 72 89 q 87 100 122 100 l 139 100 l 231 533 l 214 533 q 181 533 169 544 q 157 554 157 573 q 157 603 185 623 q 201 633 235 633 l 353 633 l 281 296 l 373 359 q 366 375 366 383 q 366 412 394 432 q 410 443 445 443 l 559 443 q 592 443 604 433 q 616 422 616 404 q 616 374 588 354 q 573 343 538 343 l 510 343 l 367 245 l 500 100 l 530 100 q 563 100 575 90 q 587 80 587 61 q 587 30 558 10 q 542 0 508 0 l 393 0 q 359 0 347 10 q 335 21 335 40 q 335 64 361 88 l 275 182 z"},"u":{"x_min":0,"x_max":600,"ha":600,"o":"m 606 443 l 534 100 q 562 100 574 90 q 586 79 586 61 q 586 31 558 11 q 542 0 507 0 l 412 0 l 417 23 q 323 -16 250 -16 q 192 -16 157 16 q 122 49 122 98 q 122 111 125 128 l 171 343 l 154 343 q 121 343 109 354 q 97 364 97 383 q 97 413 125 433 q 140 443 175 443 l 292 443 l 229 146 q 226 130 226 121 q 226 106 239 95 q 252 84 278 84 q 309 84 346 96 q 383 107 442 139 l 485 343 l 449 343 q 416 343 404 354 q 392 364 392 383 q 392 413 420 433 q 435 443 470 443 z"},"]":{"x_min":0,"x_max":600,"ha":600,"o":"m 239 -56 l 364 532 l 304 532 q 270 532 258 542 q 246 553 246 571 q 246 601 274 621 q 290 632 325 632 l 485 632 l 318 -156 l 158 -156 q 125 -156 113 -146 q 101 -135 101 -116 q 101 -86 129 -67 q 145 -56 179 -56 z"},"U":{"x_min":0,"x_max":600,"ha":600,"o":"m 633 492 l 573 208 q 553 114 472 50 q 392 -15 297 -15 q 217 -15 164 36 q 111 86 111 160 q 111 182 117 208 l 177 492 q 148 492 137 502 q 125 513 125 531 q 125 562 154 582 q 168 592 203 592 l 335 592 q 368 592 380 582 q 392 571 392 552 q 392 522 364 502 q 348 492 313 492 l 277 492 l 215 199 q 213 188 213 178 q 213 141 243 113 q 272 85 317 85 q 354 85 389 103 q 423 120 449 151 q 465 170 471 199 l 533 492 l 497 492 q 464 492 452 502 q 440 513 440 532 q 440 562 468 582 q 483 592 519 592 l 650 592 q 684 592 695 582 q 707 571 707 553 q 707 528 688 510 q 668 492 633 492 z"},"o":{"x_min":0,"x_max":600,"ha":600,"o":"m 298 -16 q 236 -16 185 9 q 134 34 109 77 q 83 120 83 171 q 83 234 126 304 q 169 375 246 416 q 322 457 402 457 q 459 457 509 430 q 560 404 585 360 q 610 315 610 263 q 610 194 570 129 q 530 64 453 24 q 376 -16 298 -16 z m 319 84 q 396 84 452 133 q 508 182 508 236 q 508 288 472 322 q 437 356 377 356 q 293 356 233 294 q 186 244 186 193 q 186 151 222 117 q 259 84 319 84 z"},"N":{"x_min":0,"x_max":600,"ha":600,"o":"m 261 403 l 196 100 l 232 100 q 266 100 278 90 q 290 80 290 61 q 290 30 261 10 q 246 0 211 0 l 80 0 q 46 0 34 10 q 22 21 22 40 q 22 64 42 82 q 62 100 96 100 l 179 492 l 164 492 q 130 492 118 502 q 106 513 106 532 q 106 562 135 582 q 150 592 185 592 l 301 592 l 472 190 l 536 492 l 499 492 q 466 492 454 502 q 442 513 442 532 q 442 562 470 582 q 486 592 521 592 l 652 592 q 686 592 698 582 q 709 571 709 552 q 709 528 690 510 q 670 492 636 492 l 531 0 l 432 0 z"},"+":{"x_min":0,"x_max":600,"ha":600,"o":"m 400 234 l 365 67 q 357 31 340 15 q 323 0 300 0 q 283 0 271 11 q 260 22 260 37 q 260 46 265 67 l 300 234 l 157 234 q 124 234 112 245 q 100 255 100 274 q 100 304 128 324 q 143 335 178 334 l 321 334 l 357 501 q 365 538 382 553 q 399 568 422 568 q 439 568 450 557 q 461 546 461 531 q 461 521 457 501 l 422 334 l 564 334 q 598 334 610 324 q 622 314 622 295 q 622 266 594 246 q 579 234 543 234 z"},"G":{"x_min":0,"x_max":600,"ha":600,"o":"m 591 183 l 562 49 q 486 12 435 -1 q 385 -15 328 -15 q 246 -15 188 11 q 129 37 104 79 q 78 122 78 190 q 78 218 85 250 l 100 322 q 121 422 199 500 q 304 607 445 607 q 486 607 521 599 q 557 590 586 574 q 610 592 628 592 q 646 592 657 581 q 668 570 668 555 q 668 545 664 525 l 650 460 q 643 424 625 409 q 608 394 585 394 q 568 394 558 404 q 550 412 549 437 q 547 462 541 471 q 531 485 500 496 q 469 507 427 507 q 370 507 322 484 q 286 467 249 421 q 211 375 200 322 l 185 250 q 180 225 180 200 q 180 148 213 121 q 257 85 345 85 q 379 85 412 92 q 445 99 476 111 l 491 183 l 389 183 q 355 183 344 194 q 332 204 332 223 q 332 252 360 272 q 375 284 410 284 l 588 283 q 622 283 634 273 q 646 263 646 244 q 646 225 632 208 q 618 190 591 183 z"},"q":{"x_min":0,"x_max":600,"ha":600,"o":"m 605 343 l 509 -109 l 526 -109 q 560 -109 572 -119 q 583 -130 583 -148 q 583 -179 555 -198 q 540 -209 505 -209 l 328 -209 q 294 -209 282 -199 q 271 -188 271 -169 q 271 -139 299 -119 q 314 -109 349 -109 l 409 -109 l 444 55 q 361 10 284 10 q 192 10 135 62 q 79 115 79 187 q 79 284 170 370 q 262 457 379 457 q 458 457 519 409 l 526 443 l 644 443 q 677 443 689 433 q 701 422 701 404 q 701 374 673 354 q 657 343 622 343 z m 307 110 q 378 110 430 155 q 481 199 481 242 q 481 291 448 324 q 415 356 359 356 q 290 356 236 307 q 182 257 182 211 q 182 172 216 141 q 250 110 307 110 z"},"d":{"x_min":0,"x_max":600,"ha":600,"o":"m 665 633 l 551 100 l 568 100 q 602 100 614 90 q 625 79 625 61 q 625 30 597 11 q 582 0 547 0 l 430 0 l 435 24 q 358 -16 278 -16 q 179 -16 125 34 q 70 84 70 159 q 70 229 109 299 q 149 369 230 417 q 299 457 376 457 q 454 457 517 409 l 543 533 l 526 533 q 493 533 481 543 q 469 554 469 573 q 469 603 497 623 q 513 633 547 633 z m 297 84 q 379 84 428 129 q 478 175 478 242 q 478 291 444 324 q 410 356 356 356 q 284 356 228 302 q 172 248 172 181 q 172 139 204 111 q 235 84 297 84 z"},"1":{"x_min":0,"x_max":600,"ha":600,"o":"m 489 648 l 372 100 l 473 100 q 507 100 519 90 q 530 80 530 61 q 530 30 501 10 q 486 0 452 0 l 149 0 q 116 0 104 10 q 92 21 92 40 q 92 70 121 89 q 136 100 171 100 l 272 100 l 361 518 l 267 494 q 244 489 233 489 q 216 489 206 500 q 196 510 196 529 q 196 552 209 567 q 223 583 262 592 z"},"5":{"x_min":0,"x_max":600,"ha":600,"o":"m 329 532 l 304 413 q 363 430 412 430 q 487 430 534 384 q 581 337 581 259 q 581 191 545 123 q 509 55 444 20 q 379 -15 276 -15 q 174 -15 115 23 q 82 44 82 73 q 82 96 101 115 q 120 134 144 134 q 161 134 177 117 q 194 101 214 95 q 243 85 293 85 q 366 85 402 103 q 438 120 459 158 q 479 196 479 240 q 479 282 454 306 q 430 330 388 330 q 333 330 256 295 q 239 287 227 287 q 210 287 198 298 q 187 309 187 327 q 187 334 189 343 l 250 632 l 557 632 q 590 632 602 621 q 614 611 614 592 q 614 563 586 543 q 571 532 536 532 z"}}}
